<?xml version="1.0" encoding="utf-8"?>
<!-- Generator: Adobe Illustrator 24.3.0, SVG Export Plug-In . SVG Version: 6.00 Build 0)  -->
<svg version="1.1" id="Layer_1" xmlns="http://www.w3.org/2000/svg" xmlns:xlink="http://www.w3.org/1999/xlink" x="0px" y="0px"
	 viewBox="0 0 24 24" style="enable-background:new 0 0 24 24;" xml:space="preserve">
<style type="text/css">
	.st0{fill:none;}
	.st1{fill:#FC1010;}
</style>
<g>
	<path class="st0" d="M0,0v24h24V0H0z M23,14.9c0,1-0.4,1.9-1,2.7l-0.2,0.2l-4.1,4.1c-0.7,0.7-1.6,1.1-2.6,1.2h-0.2H9.1
		c-1,0-1.9-0.4-2.7-1l-0.2-0.2l-4.1-4.1c-0.6-0.8-1-1.7-1.1-2.7v-0.2V9.1c0-1,0.4-1.9,1-2.7l0.2-0.2l4.1-4.1C7,1.5,7.9,1.1,8.9,1
		h0.2h5.8c1,0,1.9,0.4,2.7,1l0.2,0.2l4.1,4.1c0.6,0.7,1,1.6,1.1,2.6v0.2V14.9z"/>
	<path class="st1" d="M21.8,6.3l-4.1-4.1L17.6,2c-0.7-0.7-1.7-1-2.7-1H9.1H8.9C7.9,1.1,7,1.5,6.3,2.2L2.2,6.3L2,6.4
		C1.4,7.2,1,8.1,1,9.1v5.8v0.2c0.1,1,0.5,1.9,1.2,2.6l4.1,4.1L6.4,22c0.7,0.7,1.7,1,2.7,1h5.8h0.2c1-0.1,1.9-0.5,2.6-1.2l4.1-4.1
		l0.2-0.2c0.7-0.7,1-1.7,1-2.7V9.1V8.9C22.9,7.9,22.5,7,21.8,6.3z M15.4,12.3L12,16.2l-0.4,0.5c-0.6,0.6-1,0.5-1-0.4l1-3.7H9
		c-0.7,0-0.9-0.4-0.4-1L12,7.8l0.4-0.5c0.6-0.6,1-0.5,1,0.4l-1,3.7H15C15.7,11.4,15.9,11.8,15.4,12.3z"/>
</g>
</svg>
