<?xml version="1.0" encoding="utf-8"?>
<!-- Generator: Adobe Illustrator 24.3.0, SVG Export Plug-In . SVG Version: 6.00 Build 0)  -->
<svg version="1.1" id="Layer_1" xmlns="http://www.w3.org/2000/svg" xmlns:xlink="http://www.w3.org/1999/xlink" x="0px" y="0px"
	 viewBox="0 0 24 24" style="enable-background:new 0 0 24 24;" xml:space="preserve">
<style type="text/css">
	.st0{fill:none;}
	.st1{fill:#1EF962;}
</style>
<path class="st0" d="M0,0h24v24H0V0z"/>
<path class="st1" d="M17,3.3c4.8,2.8,6.4,8.9,3.7,13.7S11.8,23.4,7,20.7c-3-1.7-4.9-4.9-5-8.3L2,12l0-0.3C2.2,6.2,6.8,1.8,12.3,2
	C14,2.1,15.6,2.5,17,3.3z M15.7,9.3c-0.4-0.4-0.9-0.4-1.3-0.1l-0.1,0.1L11,12.6l-1.3-1.3l-0.1-0.1c-0.4-0.3-1.1-0.3-1.4,0.2
	c-0.3,0.4-0.3,0.9,0,1.2l0.1,0.1l2,2l0.1,0.1c0.4,0.3,0.9,0.3,1.2,0l0.1-0.1l4-4l0.1-0.1C16.1,10.2,16.1,9.6,15.7,9.3z"/>
</svg>
