<?xml version="1.0" encoding="utf-8"?>
<!-- Generator: Adobe Illustrator 24.3.0, SVG Export Plug-In . SVG Version: 6.00 Build 0)  -->
<svg version="1.1" id="Capa_1" xmlns="http://www.w3.org/2000/svg" xmlns:xlink="http://www.w3.org/1999/xlink" x="0px" y="0px"
	 viewBox="0 0 800 800" style="enable-background:new 0 0 800 800;" xml:space="preserve">
<style type="text/css">
	.st0{fill:#848484;}
</style>
<path class="st0" d="M400,0C179.4,0,0,179.4,0,400s179.4,400,400,400s400-179.4,400-400S620.6,0,400,0z M267.7,536
	c-3.1,2.1-10.9,4-15.5-1.1l-8.4-10.6c-4.1-6.9,0.9-13.3,4.1-16c15.2-12.6,26.3-22.4,33.2-29.3c13.5-14.2,23.5-28.5,30.1-42.7
	c1.5-3.2-2.3-5.3-4.3-6c-50-16.3-74.9-45.1-74.9-86.4c0-24.3,8.1-44.1,24.2-59.3c16.2-15.2,36.4-22.8,60.7-22.8
	c21.7,0,40.9,9.9,57.6,29.6c16.3,18.6,24.5,38.8,24.5,60.4C399,415.4,355.3,476.8,267.7,536z M457.5,536c-3.1,2.1-10.9,4-15.5-1.1
	l-8.4-10.6c-4.1-6.9,0.9-13.3,4.1-16c15.2-12.6,26.3-22.4,33.2-29.3c13.5-14.2,23.5-28.5,30.1-42.7c1.5-3.2-2.3-5.3-4.3-6
	c-49.9-16.3-74.8-45.2-74.8-86.4c0-24.3,8.1-44.1,24.2-59.3c16.2-15.2,36.4-22.8,60.7-22.8c21.7,0,40.9,9.9,57.6,29.6
	c16.3,18.6,24.5,38.8,24.5,60.4C588.8,415.4,545.1,476.8,457.5,536z"/>
</svg>
