<?xml version="1.0" encoding="utf-8"?>
<!-- Generator: Adobe Illustrator 24.3.0, SVG Export Plug-In . SVG Version: 6.00 Build 0)  -->
<svg version="1.1" id="Layer_1" xmlns="http://www.w3.org/2000/svg" xmlns:xlink="http://www.w3.org/1999/xlink" x="0px" y="0px"
	 viewBox="0 0 24 24" style="enable-background:new 0 0 24 24;" xml:space="preserve">
<style type="text/css">
	.st0{fill:none;}
	.st1{fill:#0079FC;}
</style>
<path class="st0" d="M0,0h24v24H0V0z"/>
<path class="st1" d="M12,2c5.5,0,10,4.5,10,10c0,5.5-4.5,10-10,10c-5.4,0-9.8-4.3-10-9.7L2,12l0-0.3C2.2,6.3,6.6,2,12,2z M12,11h-1
	l-0.1,0c-0.5,0.1-0.9,0.6-0.9,1.1c0.1,0.5,0.4,0.8,0.9,0.9l0.1,0v3l0,0.1c0.1,0.5,0.4,0.8,0.9,0.9l0.1,0h1l0.1,0
	c0.5-0.1,0.8-0.4,0.9-0.9l0-0.1l0-0.1c0-0.4-0.4-0.8-0.8-0.9l-0.1,0L13,15v-3l0-0.1c-0.1-0.5-0.4-0.8-0.9-0.9L12,11z M12,8l-0.1,0
	c-0.5,0.1-0.9,0.6-0.9,1.1c0.1,0.5,0.4,0.8,0.9,0.9l0.1,0l0.1,0c0.5-0.1,0.9-0.6,0.9-1.1c-0.1-0.5-0.4-0.8-0.9-0.9L12,8z"/>
</svg>
