<?xml version="1.0" encoding="utf-8"?>
<!-- Generator: Adobe Illustrator 24.3.0, SVG Export Plug-In . SVG Version: 6.00 Build 0)  -->
<svg version="1.1" id="Layer_1" xmlns="http://www.w3.org/2000/svg" xmlns:xlink="http://www.w3.org/1999/xlink" x="0px" y="0px"
	 viewBox="0 0 24 24" style="enable-background:new 0 0 24 24;" xml:space="preserve">
<style type="text/css">
	.st0{fill:none;}
	.st1{fill:#FF900B;}
</style>
<path class="st0" d="M0,0h24v24H0V0z"/>
<path class="st1" d="M12,1.7c1,0,1.8,0.5,2.4,1.2l0.1,0.2l8.1,13.5c0.8,1.4,0.3,3.2-1.1,4c-0.4,0.2-0.8,0.3-1.2,0.4l-0.2,0H3.9
	C2.3,21,1,19.7,1,18c0-0.4,0.1-0.9,0.3-1.3l0.1-0.2L9.5,3.1C10,2.2,11,1.7,12,1.7z M12,15l-0.1,0c-0.5,0.1-0.9,0.6-0.9,1.1
	c0.1,0.5,0.4,0.8,0.9,0.9l0.1,0l0.1,0c0.5-0.1,0.9-0.6,0.9-1.1c-0.1-0.5-0.4-0.8-0.9-0.9L12,15z M12,8c-0.5,0-0.9,0.4-1,0.9L11,9v4
	l0,0.1c0.1,0.5,0.6,0.9,1.1,0.9c0.5-0.1,0.8-0.4,0.9-0.9l0-0.1V9l0-0.1C12.9,8.4,12.5,8,12,8z"/>
</svg>
