<?xml version="1.0" encoding="utf-8"?>
<!-- Generator: Adobe Illustrator 24.3.0, SVG Export Plug-In . SVG Version: 6.00 Build 0)  -->
<svg version="1.1" id="Capa_1" xmlns="http://www.w3.org/2000/svg" xmlns:xlink="http://www.w3.org/1999/xlink" x="0px" y="0px"
	 viewBox="0 0 128 128" style="enable-background:new 0 0 128 128;" xml:space="preserve">
<style type="text/css">
	.st0{fill:#BDBDC0;}
</style>
<path class="st0" d="M38,24.9c-1.3-1.3-2-2.9-2-4.7c0-1.8,0.7-3.4,2-4.7c1.4-1.4,2.9-2,4.7-2.1c1.8-0.1,3.4,0.6,4.7,1.9l41.1,41.1
	c1.1,1.1,1.9,2.3,2.4,3.6s0.8,2.7,0.8,4c0,1.3-0.3,2.7-0.8,4c-0.5,1.3-1.3,2.5-2.4,3.6l-40.9,41.1c-1.3,1.3-2.9,2-4.7,2
	c-1.8,0-3.4-0.7-4.7-2c-1.4-1.3-2-2.9-2.1-4.7s0.6-3.4,1.9-4.7l39.2-39.2L38,24.9z"/>
</svg>
