<?xml version="1.0" encoding="utf-8"?>
<!-- Generator: Adobe Illustrator 24.3.0, SVG Export Plug-In . SVG Version: 6.00 Build 0)  -->
<svg version="1.1" id="Layer_1" xmlns="http://www.w3.org/2000/svg" xmlns:xlink="http://www.w3.org/1999/xlink" x="0px" y="0px"
	 viewBox="0 0 24 24" style="enable-background:new 0 0 24 24;" xml:space="preserve">
<style type="text/css">
	.st0{fill:none;}
	.st1{fill:#FF6700;}
</style>
<path class="st0" d="M0,0h24v24H0V0z"/>
<path class="st1" d="M15,2c0.6,0,1,0.4,1,1s-0.4,1-1,1v4.8l3.9,10.8l0,0.1c0.1,0.4,0.1,0.8,0,1.2l-0.1,0.2c-0.2,0.5-0.7,0.8-1.2,0.9
	l-0.2,0h-11l-0.2,0c-0.9-0.2-1.5-1.1-1.4-2c0-0.1,0-0.2,0.1-0.3l0-0.1L9,8.8V4C8.4,4,8,3.6,8,3s0.4-1,1-1C9,2,15,2,15,2z M13,4h-2v4
	h2V4z"/>
</svg>
