<?xml version="1.0" encoding="utf-8"?>
<!-- Generator: Adobe Illustrator 24.3.0, SVG Export Plug-In . SVG Version: 6.00 Build 0)  -->
<svg version="1.1" xmlns="http://www.w3.org/2000/svg" xmlns:xlink="http://www.w3.org/1999/xlink" x="0px" y="0px"
	 viewBox="0 0 500 500" style="enable-background:new 0 0 500 500;" xml:space="preserve">
<style type="text/css">
	.st0{display:none;fill:url(#SVGID_1_);}
	.st1{fill:#C0E6E7;}
	.st2{display:none;}
	.st3{display:inline;fill:none;stroke:#2E469D;stroke-miterlimit:10;}
	.st4{fill:none;stroke:#2E469D;stroke-miterlimit:10;}
</style>
<g id="Path">
	<radialGradient id="SVGID_1_" cx="250" cy="250" r="250" fx="351.6628" fy="156.2868" gradientUnits="userSpaceOnUse">
		<stop  offset="0.1813" style="stop-color:#E0E0E0"/>
		<stop  offset="1" style="stop-color:#858585"/>
	</radialGradient>
	<circle class="st0" cx="250" cy="250" r="250"/>
	<g>
		<g>
			<g>
				<path class="st1" d="M70.7,372.3c0.6-1.2,1.1-2.5,1.8-3.7C130.9,267.3,189.4,166,247.9,64.7c0.6-1,1.2-2,1.9-3.2
					c0.6,0.8,1.1,1.4,1.4,2C310.1,165.6,369.1,267.6,428,369.7c0.5,0.8,0.9,1.7,1.4,2.6C309.8,372.3,190.2,372.3,70.7,372.3z
					 M420.9,366.6c0.2-0.2,0.4-0.3,0.6-0.5c-56.8-98.3-113.5-196.7-170.3-295c-0.2,0.1-0.5,0.1-0.7,0.2
					c-16.5,76-32.9,152-49.4,228.1C274.6,321.8,347.7,344.2,420.9,366.6z M79,364.8c1.3-0.6,1.8-0.8,2.3-1.1
					c38-21.1,76-42.2,114-63.4c1-0.6,1.9-1.9,2.2-3.1c1.8-7.8,3.5-15.6,5.2-23.4c13.1-60.3,26.2-120.6,39.2-181c1-4.8,2-9.5,3-14.3
					c-0.2-0.1-0.4-0.1-0.6-0.2C189.4,173.6,134.4,268.8,79,364.8z M82.3,367.6c0.1,0.1,0.1,0.3,0.2,0.4c109.6,0,219.3,0,328.9,0
					c-0.8-0.6-1.6-0.9-2.4-1.1c-69-21.1-138-42.2-207-63.4c-2-0.6-3.6-0.5-5.5,0.5c-30.8,17.2-61.7,34.3-92.5,51.4
					C96.7,359.5,89.5,363.5,82.3,367.6z"/>
			</g>
		</g>
	</g>
</g>
<g id="Stroke" class="st2">
	<line class="st3" x1="198.6" y1="300.6" x2="249.8" y2="64.8"/>
	<line class="st3" x1="249.8" y1="64.8" x2="426" y2="370.2"/>
	<line class="st3" x1="426" y1="370.2" x2="73.9" y2="370.2"/>
	<line class="st3" x1="73.9" y1="370.2" x2="249.8" y2="64.8"/>
	<line class="st3" x1="426" y1="370.2" x2="198.6" y2="300.6"/>
	<line class="st3" x1="73.9" y1="370.2" x2="198.6" y2="300.6"/>
</g>
<g id="_x31__UL" class="st2">
	<line class="st3" x1="73.9" y1="370.2" x2="249.8" y2="64.8"/>
</g>
<g id="_x32__UC" class="st2">
	<line class="st3" x1="198.6" y1="300.6" x2="249.8" y2="64.8"/>
</g>
<g id="_x33__UR" class="st2">
	<line class="st3" x1="249.8" y1="64.8" x2="426" y2="370.2"/>
</g>
<g id="_x34__LC" class="st2">
	<line class="st3" x1="73.9" y1="370.2" x2="198.6" y2="300.6"/>
</g>
<g id="_x35__RC" class="st2">
	<line class="st3" x1="426" y1="370.2" x2="198.6" y2="300.6"/>
	<line class="st3" x1="426" y1="370.2" x2="198.6" y2="300.6"/>
	<line class="st3" x1="426" y1="370.2" x2="198.6" y2="300.6"/>
</g>
<g id="_x36__CC" class="st2">
	<line class="st4" x1="426" y1="370.2" x2="73.9" y2="370.2"/>
</g>
</svg>
