<?xml version="1.0" encoding="utf-8"?>
<!-- Generator: Adobe Illustrator 24.3.0, SVG Export Plug-In . SVG Version: 6.00 Build 0)  -->
<svg version="1.0" id="Layer_1" xmlns="http://www.w3.org/2000/svg" xmlns:xlink="http://www.w3.org/1999/xlink" x="0px" y="0px"
	 viewBox="0 0 50 50" style="enable-background:new 0 0 50 50;" xml:space="preserve">
<style type="text/css">
	.st0{fill:#BDBDC0;}
</style>
<path class="st0" d="M5,8c-1.1,0-2,0.9-2,2c0,1.1,0.9,2,2,2c0,0,0,0,0.1,0h40c1.1,0,2-0.9,2-2s-0.9-2-2-2c0,0,0,0-0.1,0H5z M5,23
	c-1.1,0-2,0.9-2,2c0,1.1,0.9,2,2,2c0,0,0,0,0.1,0h40c1.1,0,2-0.9,2-2c0-1.1-0.9-2-2-2c0,0,0,0-0.1,0H5z M5,38c-1.1,0-2,0.9-2,2
	c0,1.1,0.9,2,2,2c0,0,0,0,0.1,0h40c1.1,0,2-0.9,2-2s-0.9-2-2-2c0,0,0,0-0.1,0H5z"/>
</svg>
