<?xml version="1.0" encoding="utf-8"?>
<!-- Generator: Adobe Illustrator 24.3.0, SVG Export Plug-In . SVG Version: 6.00 Build 0)  -->
<svg version="1.1" id="Layer_1" xmlns="http://www.w3.org/2000/svg" xmlns:xlink="http://www.w3.org/1999/xlink" x="0px" y="0px"
	 viewBox="0 0 24 24" style="enable-background:new 0 0 24 24;" xml:space="preserve">
<style type="text/css">
	.st0{fill:none;}
	.st1{fill:none;stroke:#FFFFFF;stroke-width:2;stroke-linecap:round;stroke-linejoin:round;}
</style>
<path class="st0" d="M0,0h24v24H0V0z"/>
<path class="st1" d="M3,12c0,1.7,1.3,3,3,3s3-1.3,3-3S7.7,9,6,9S3,10.3,3,12"/>
<path class="st1" d="M15,6c0,1.7,1.3,3,3,3s3-1.3,3-3s-1.3-3-3-3S15,4.3,15,6"/>
<path class="st1" d="M15,18c0,1.7,1.3,3,3,3s3-1.3,3-3s-1.3-3-3-3S15,16.3,15,18"/>
<path class="st1" d="M8.7,10.7l6.6-3.4"/>
<path class="st1" d="M8.7,13.3l6.6,3.4"/>
</svg>
