<?xml version="1.0" encoding="utf-8"?>
<!-- Generator: Adobe Illustrator 24.3.0, SVG Export Plug-In . SVG Version: 6.00 Build 0)  -->
<svg version="1.1" baseProfile="tiny" id="Layer_1" xmlns="http://www.w3.org/2000/svg" xmlns:xlink="http://www.w3.org/1999/xlink"
	 x="0px" y="0px" viewBox="0 0 50 50.1" overflow="visible" xml:space="preserve">
<g>
	<polygon fill="#FEE240" points="36.5,1 27.4,16.7 45.5,16.7 	"/>
	<path fill="#08A782" d="M1,0c-0.5,0-1,0.3-1,1s0.3,1,1,1c5.1,0,9.5,3.8,9.9,9c-5.1,0.5-9,4.6-9,9.8c0,5.5,4.3,6.3,9.8,6.3
		c3.2,0,6.1-0.3,7.9-1.8c0,0.8,0.2,1.4,0.5,2.2l-6.6,4.6c-1.8-1.4-4-2.1-6.4-2.1c-2.6,0-5.1,0.8-6.9,2.7c-0.3,0.3-0.3,1,0,1.3
		s1,0.3,1.3,0l0,0C3,32.6,5,31.9,7.1,31.9c2.2,0,4.3,0.8,5.6,2.1c0.3,0.3,0.8,0.3,1.1,0.2l7.1-5c0.2,0.2,0.2,0.2,0.3,0.3l-12,19.1
		c-0.3,0.5-0.2,1,0.3,1.3s1,0.2,1.3-0.3l0,0L23,30c0.2,0,0.3,0.2,0.3,0.2v18.9c0,0.5,0.3,1,1,1s1-0.3,1-1V30.5
		c1.8,0,3.2-0.8,4.3-2.2c-0.6,2.2-0.8,5.1-0.8,8.3c0,7.4,0.5,13.3,7.9,13.3S50,44,50,36.6s-6.1-13.5-13.5-13.5c-3.2,0-5,1.1-6.1,2.9
		c0.5-2.9-1.4-5.8-4.3-6.3c-1.6-0.3-3.2,0.2-4.5,1.3c0.2-5.1-3.7-9.6-8.8-10.1C12.3,4.8,7.1,0,1,0 M8.1,15.2c0.8,0,1.3,0.6,1.3,1.3
		v1.6c0,0.8-0.6,1.3-1.3,1.3s-1.3-0.6-1.3-1.3v-1.6C6.8,15.9,7.5,15.2,8.1,15.2"/>
</g>
</svg>
